<?xml version="1.0" encoding="UTF-8"?>
<svg xmlns="http://www.w3.org/2000/svg" style="display: none;">

    <!-- ============================================
         SERVICE ICONS (12)
         ============================================ -->

    <!-- Custom Software Development -->
    <symbol id="icon-software" viewBox="0 0 24 24" fill="none" stroke="currentColor" stroke-width="1.8" stroke-linecap="round" stroke-linejoin="round">
        <polyline points="16 18 22 12 16 6"/>
        <polyline points="8 6 2 12 8 18"/>
        <line x1="14" y1="4" x2="10" y2="20"/>
    </symbol>

    <!-- Hardware & IT Infrastructure -->
    <symbol id="icon-hardware" viewBox="0 0 24 24" fill="none" stroke="currentColor" stroke-width="1.8" stroke-linecap="round" stroke-linejoin="round">
        <rect x="2" y="3" width="20" height="14" rx="2"/>
        <line x1="8" y1="21" x2="16" y2="21"/>
        <line x1="12" y1="17" x2="12" y2="21"/>
        <circle cx="12" cy="10" r="2"/>
    </symbol>

    <!-- Digital Transformation -->
    <symbol id="icon-transformation" viewBox="0 0 24 24" fill="none" stroke="currentColor" stroke-width="1.8" stroke-linecap="round" stroke-linejoin="round">
        <path d="M12 2v4"/>
        <path d="m16.24 7.76 2.83-2.83"/>
        <path d="M18 12h4"/>
        <path d="m16.24 16.24 2.83 2.83"/>
        <path d="M12 18v4"/>
        <path d="m4.93 19.07 2.83-2.83"/>
        <path d="M2 12h4"/>
        <path d="m4.93 4.93 2.83 2.83"/>
        <circle cx="12" cy="12" r="3"/>
    </symbol>

    <!-- IT Consulting & Advisory -->
    <symbol id="icon-consulting" viewBox="0 0 24 24" fill="none" stroke="currentColor" stroke-width="1.8" stroke-linecap="round" stroke-linejoin="round">
        <path d="M21 15a2 2 0 0 1-2 2H7l-4 4V5a2 2 0 0 1 2-2h14a2 2 0 0 1 2 2z"/>
        <line x1="9" y1="9" x2="15" y2="9"/>
        <line x1="9" y1="13" x2="13" y2="13"/>
    </symbol>

    <!-- Cloud Solutions -->
    <symbol id="icon-cloud" viewBox="0 0 24 24" fill="none" stroke="currentColor" stroke-width="1.8" stroke-linecap="round" stroke-linejoin="round">
        <path d="M17.5 19a4.5 4.5 0 0 0 0-9h-1.8A7 7 0 1 0 4 14.9"/>
        <path d="M12 13v8"/>
        <path d="m8 17 4-4 4 4"/>
    </symbol>

    <!-- Cybersecurity -->
    <symbol id="icon-cybersecurity" viewBox="0 0 24 24" fill="none" stroke="currentColor" stroke-width="1.8" stroke-linecap="round" stroke-linejoin="round">
        <path d="M12 22s8-4 8-10V5l-8-3-8 3v7c0 6 8 10 8 10z"/>
        <path d="m9 12 2 2 4-4"/>
    </symbol>

    <!-- Networking Solutions -->
    <symbol id="icon-networking" viewBox="0 0 24 24" fill="none" stroke="currentColor" stroke-width="1.8" stroke-linecap="round" stroke-linejoin="round">
        <circle cx="12" cy="12" r="2"/>
        <circle cx="4" cy="4" r="2"/>
        <circle cx="20" cy="4" r="2"/>
        <circle cx="4" cy="20" r="2"/>
        <circle cx="20" cy="20" r="2"/>
        <line x1="6" y1="6" x2="10.5" y2="10.5"/>
        <line x1="18" y1="6" x2="13.5" y2="10.5"/>
        <line x1="6" y1="18" x2="10.5" y2="13.5"/>
        <line x1="18" y1="18" x2="13.5" y2="13.5"/>
    </symbol>

    <!-- VoIP & Communications -->
    <symbol id="icon-voip" viewBox="0 0 24 24" fill="none" stroke="currentColor" stroke-width="1.8" stroke-linecap="round" stroke-linejoin="round">
        <path d="M22 16.92v3a2 2 0 0 1-2.18 2 19.79 19.79 0 0 1-8.63-3.07 19.5 19.5 0 0 1-6-6 19.79 19.79 0 0 1-3.07-8.67A2 2 0 0 1 4.11 2h3a2 2 0 0 1 2 1.72 12.84 12.84 0 0 0 .7 2.81 2 2 0 0 1-.45 2.11L8.09 9.91a16 16 0 0 0 6 6l1.27-1.27a2 2 0 0 1 2.11-.45 12.84 12.84 0 0 0 2.81.7A2 2 0 0 1 22 16.92z"/>
    </symbol>

    <!-- Managed IT Services -->
    <symbol id="icon-managed" viewBox="0 0 24 24" fill="none" stroke="currentColor" stroke-width="1.8" stroke-linecap="round" stroke-linejoin="round">
        <circle cx="12" cy="12" r="3"/>
        <path d="M19.4 15a1.65 1.65 0 0 0 .33 1.82l.06.06a2 2 0 0 1-2.83 2.83l-.06-.06a1.65 1.65 0 0 0-1.82-.33 1.65 1.65 0 0 0-1 1.51V21a2 2 0 0 1-4 0v-.09A1.65 1.65 0 0 0 9 19.4a1.65 1.65 0 0 0-1.82.33l-.06.06a2 2 0 0 1-2.83-2.83l.06-.06a1.65 1.65 0 0 0 .33-1.82 1.65 1.65 0 0 0-1.51-1H3a2 2 0 0 1 0-4h.09A1.65 1.65 0 0 0 4.6 9a1.65 1.65 0 0 0-.33-1.82l-.06-.06a2 2 0 0 1 2.83-2.83l.06.06a1.65 1.65 0 0 0 1.82.33H9a1.65 1.65 0 0 0 1-1.51V3a2 2 0 0 1 4 0v.09a1.65 1.65 0 0 0 1 1.51 1.65 1.65 0 0 0 1.82-.33l.06-.06a2 2 0 0 1 2.83 2.83l-.06.06a1.65 1.65 0 0 0-.33 1.82V9a1.65 1.65 0 0 0 1.51 1H21a2 2 0 0 1 0 4h-.09a1.65 1.65 0 0 0-1.51 1z"/>
    </symbol>

    <!-- Data Analytics & BI -->
    <symbol id="icon-analytics" viewBox="0 0 24 24" fill="none" stroke="currentColor" stroke-width="1.8" stroke-linecap="round" stroke-linejoin="round">
        <line x1="18" y1="20" x2="18" y2="10"/>
        <line x1="12" y1="20" x2="12" y2="4"/>
        <line x1="6" y1="20" x2="6" y2="14"/>
        <line x1="3" y1="20" x2="21" y2="20"/>
    </symbol>

    <!-- ERP & Business Systems -->
    <symbol id="icon-erp" viewBox="0 0 24 24" fill="none" stroke="currentColor" stroke-width="1.8" stroke-linecap="round" stroke-linejoin="round">
        <rect x="3" y="3" width="7" height="7" rx="1"/>
        <rect x="14" y="3" width="7" height="7" rx="1"/>
        <rect x="14" y="14" width="7" height="7" rx="1"/>
        <rect x="3" y="14" width="7" height="7" rx="1"/>
    </symbol>

    <!-- ICT Training -->
    <symbol id="icon-training" viewBox="0 0 24 24" fill="none" stroke="currentColor" stroke-width="1.8" stroke-linecap="round" stroke-linejoin="round">
        <path d="M22 10v6M2 10l10-5 10 5-10 5z"/>
        <path d="M6 12v5c3 3 9 3 12 0v-5"/>
    </symbol>

    <!-- ============================================
         INDUSTRY ICONS (9)
         ============================================ -->

    <!-- Government & Public Sector -->
    <symbol id="icon-government" viewBox="0 0 24 24" fill="none" stroke="currentColor" stroke-width="1.8" stroke-linecap="round" stroke-linejoin="round">
        <line x1="3" y1="21" x2="21" y2="21"/>
        <polyline points="5 21 5 10 12 3 19 10 19 21"/>
        <line x1="9" y1="21" x2="9" y2="14"/>
        <line x1="15" y1="21" x2="15" y2="14"/>
        <circle cx="12" cy="11" r="1"/>
    </symbol>

    <!-- Construction & Engineering -->
    <symbol id="icon-construction" viewBox="0 0 24 24" fill="none" stroke="currentColor" stroke-width="1.8" stroke-linecap="round" stroke-linejoin="round">
        <path d="M2 20h20"/>
        <path d="M4 20V8l8-6 8 6v12"/>
        <line x1="9" y1="20" x2="9" y2="14"/>
        <line x1="15" y1="20" x2="15" y2="14"/>
        <rect x="10" y="9" width="4" height="3"/>
    </symbol>

    <!-- Education & Training -->
    <symbol id="icon-education" viewBox="0 0 24 24" fill="none" stroke="currentColor" stroke-width="1.8" stroke-linecap="round" stroke-linejoin="round">
        <path d="M22 10v6M2 10l10-5 10 5-10 5z"/>
        <path d="M6 12v5c0 1.66 2.69 3 6 3s6-1.34 6-3v-5"/>
    </symbol>

    <!-- Healthcare -->
    <symbol id="icon-healthcare" viewBox="0 0 24 24" fill="none" stroke="currentColor" stroke-width="1.8" stroke-linecap="round" stroke-linejoin="round">
        <path d="M20.84 4.61a5.5 5.5 0 0 0-7.78 0L12 5.67l-1.06-1.06a5.5 5.5 0 0 0-7.78 7.78l1.06 1.06L12 21.23l7.78-7.78 1.06-1.06a5.5 5.5 0 0 0 0-7.78z"/>
        <line x1="12" y1="9" x2="12" y2="15"/>
        <line x1="9" y1="12" x2="15" y2="12"/>
    </symbol>

    <!-- Financial Services -->
    <symbol id="icon-financial" viewBox="0 0 24 24" fill="none" stroke="currentColor" stroke-width="1.8" stroke-linecap="round" stroke-linejoin="round">
        <line x1="12" y1="1" x2="12" y2="23"/>
        <path d="M17 5H9.5a3.5 3.5 0 0 0 0 7h5a3.5 3.5 0 0 1 0 7H6"/>
    </symbol>

    <!-- Retail & E-Commerce -->
    <symbol id="icon-retail" viewBox="0 0 24 24" fill="none" stroke="currentColor" stroke-width="1.8" stroke-linecap="round" stroke-linejoin="round">
        <circle cx="9" cy="21" r="1"/>
        <circle cx="20" cy="21" r="1"/>
        <path d="M1 1h4l2.68 13.39a2 2 0 0 0 2 1.61h9.72a2 2 0 0 0 2-1.61L23 6H6"/>
    </symbol>

    <!-- Mining & Resources -->
    <symbol id="icon-mining" viewBox="0 0 24 24" fill="none" stroke="currentColor" stroke-width="1.8" stroke-linecap="round" stroke-linejoin="round">
        <path d="M14 4l-2 6 4 4 6-2"/>
        <path d="M18 8L8 18"/>
        <path d="M6 14l-4 6 6-4"/>
        <path d="M10 6l4 4"/>
    </symbol>

    <!-- Logistics & Supply Chain -->
    <symbol id="icon-logistics" viewBox="0 0 24 24" fill="none" stroke="currentColor" stroke-width="1.8" stroke-linecap="round" stroke-linejoin="round">
        <rect x="1" y="3" width="15" height="13" rx="1"/>
        <polygon points="16 8 20 8 23 11 23 16 16 16 16 8"/>
        <circle cx="5.5" cy="18.5" r="2.5"/>
        <circle cx="18.5" cy="18.5" r="2.5"/>
    </symbol>

    <!-- Legal Services -->
    <symbol id="icon-legal" viewBox="0 0 24 24" fill="none" stroke="currentColor" stroke-width="1.8" stroke-linecap="round" stroke-linejoin="round">
        <path d="M12 3v18"/>
        <path d="M3 9l9-6 9 6"/>
        <path d="M5 9l-2 7h8l-2-7"/>
        <path d="M13 9l-2 7h8l-2-7"/>
    </symbol>

    <!-- ============================================
         UI / FEATURE ICONS
         ============================================ -->

    <!-- Target / Precision -->
    <symbol id="icon-target" viewBox="0 0 24 24" fill="none" stroke="currentColor" stroke-width="1.8" stroke-linecap="round" stroke-linejoin="round">
        <circle cx="12" cy="12" r="10"/>
        <circle cx="12" cy="12" r="6"/>
        <circle cx="12" cy="12" r="2"/>
    </symbol>

    <!-- Link / Partnership -->
    <symbol id="icon-link" viewBox="0 0 24 24" fill="none" stroke="currentColor" stroke-width="1.8" stroke-linecap="round" stroke-linejoin="round">
        <path d="M10 13a5 5 0 0 0 7.54.54l3-3a5 5 0 0 0-7.07-7.07l-1.72 1.71"/>
        <path d="M14 11a5 5 0 0 0-7.54-.54l-3 3a5 5 0 0 0 7.07 7.07l1.71-1.71"/>
    </symbol>

    <!-- Trophy / Excellence -->
    <symbol id="icon-trophy" viewBox="0 0 24 24" fill="none" stroke="currentColor" stroke-width="1.8" stroke-linecap="round" stroke-linejoin="round">
        <path d="M6 9H4.5a2.5 2.5 0 0 1 0-5H6"/>
        <path d="M18 9h1.5a2.5 2.5 0 0 0 0-5H18"/>
        <path d="M4 22h16"/>
        <path d="M10 14.66V17c0 .55-.47.98-.97 1.21C7.85 18.75 7 20.24 7 22"/>
        <path d="M14 14.66V17c0 .55.47.98.97 1.21C16.15 18.75 17 20.24 17 22"/>
        <path d="M18 2H6v7a6 6 0 0 0 12 0V2Z"/>
    </symbol>

    <!-- Lightning / Speed -->
    <symbol id="icon-lightning" viewBox="0 0 24 24" fill="none" stroke="currentColor" stroke-width="1.8" stroke-linecap="round" stroke-linejoin="round">
        <polygon points="13 2 3 14 12 14 11 22 21 10 12 10 13 2"/>
    </symbol>

    <!-- Heart / Care -->
    <symbol id="icon-heart" viewBox="0 0 24 24" fill="none" stroke="currentColor" stroke-width="1.8" stroke-linecap="round" stroke-linejoin="round">
        <path d="M20.84 4.61a5.5 5.5 0 0 0-7.78 0L12 5.67l-1.06-1.06a5.5 5.5 0 0 0-7.78 7.78l1.06 1.06L12 21.23l7.78-7.78 1.06-1.06a5.5 5.5 0 0 0 0-7.78z"/>
    </symbol>

    <!-- Dollar / Value -->
    <symbol id="icon-dollar" viewBox="0 0 24 24" fill="none" stroke="currentColor" stroke-width="1.8" stroke-linecap="round" stroke-linejoin="round">
        <line x1="12" y1="1" x2="12" y2="23"/>
        <path d="M17 5H9.5a3.5 3.5 0 0 0 0 7h5a3.5 3.5 0 0 1 0 7H6"/>
    </symbol>

    <!-- Sprout / Growth -->
    <symbol id="icon-sprout" viewBox="0 0 24 24" fill="none" stroke="currentColor" stroke-width="1.8" stroke-linecap="round" stroke-linejoin="round">
        <path d="M7 20h10"/>
        <path d="M12 20V10"/>
        <path d="M12 10c0-4 3-6 6-6 0 4-3 6-6 6z"/>
        <path d="M12 10c0-4-3-6-6-6 0 4 3 6 6 6z"/>
    </symbol>

    <!-- Shield Check -->
    <symbol id="icon-shield-check" viewBox="0 0 24 24" fill="none" stroke="currentColor" stroke-width="1.8" stroke-linecap="round" stroke-linejoin="round">
        <path d="M12 22s8-4 8-10V5l-8-3-8 3v7c0 6 8 10 8 10z"/>
        <path d="m9 12 2 2 4-4"/>
    </symbol>

    <!-- Handshake / Trust -->
    <symbol id="icon-handshake" viewBox="0 0 24 24" fill="none" stroke="currentColor" stroke-width="1.8" stroke-linecap="round" stroke-linejoin="round">
        <path d="M11 17a3 3 0 0 1-3-3V7a3 3 0 0 1 6 0v7a3 3 0 0 1-3 3z"/>
        <path d="M7 11H4a1 1 0 0 1-1-1V7a1 1 0 0 1 1-1h3"/>
        <path d="M17 11h3a1 1 0 0 0 1-1V7a1 1 0 0 0-1-1h-3"/>
        <path d="M12 17v4"/>
        <path d="M8 21h8"/>
    </symbol>

    <!-- Location Pin -->
    <symbol id="icon-location" viewBox="0 0 24 24" fill="none" stroke="currentColor" stroke-width="1.8" stroke-linecap="round" stroke-linejoin="round">
        <path d="M21 10c0 7-9 13-9 13s-9-6-9-13a9 9 0 0 1 18 0z"/>
        <circle cx="12" cy="10" r="3"/>
    </symbol>

    <!-- Phone -->
    <symbol id="icon-phone" viewBox="0 0 24 24" fill="none" stroke="currentColor" stroke-width="1.8" stroke-linecap="round" stroke-linejoin="round">
        <path d="M22 16.92v3a2 2 0 0 1-2.18 2 19.79 19.79 0 0 1-8.63-3.07 19.5 19.5 0 0 1-6-6 19.79 19.79 0 0 1-3.07-8.67A2 2 0 0 1 4.11 2h3a2 2 0 0 1 2 1.72 12.84 12.84 0 0 0 .7 2.81 2 2 0 0 1-.45 2.11L8.09 9.91a16 16 0 0 0 6 6l1.27-1.27a2 2 0 0 1 2.11-.45 12.84 12.84 0 0 0 2.81.7A2 2 0 0 1 22 16.92z"/>
    </symbol>

    <!-- Mail -->
    <symbol id="icon-mail" viewBox="0 0 24 24" fill="none" stroke="currentColor" stroke-width="1.8" stroke-linecap="round" stroke-linejoin="round">
        <path d="M4 4h16c1.1 0 2 .9 2 2v12c0 1.1-.9 2-2 2H4c-1.1 0-2-.9-2-2V6c0-1.1.9-2 2-2z"/>
        <polyline points="22,6 12,13 2,6"/>
    </symbol>

    <!-- Globe -->
    <symbol id="icon-globe" viewBox="0 0 24 24" fill="none" stroke="currentColor" stroke-width="1.8" stroke-linecap="round" stroke-linejoin="round">
        <circle cx="12" cy="12" r="10"/>
        <line x1="2" y1="12" x2="22" y2="12"/>
        <path d="M12 2a15.3 15.3 0 0 1 4 10 15.3 15.3 0 0 1-4 10 15.3 15.3 0 0 1-4-10 15.3 15.3 0 0 1 4-10z"/>
    </symbol>

    <!-- Check Circle -->
    <symbol id="icon-check" viewBox="0 0 24 24" fill="none" stroke="currentColor" stroke-width="2.5" stroke-linecap="round" stroke-linejoin="round">
        <polyline points="20 6 9 17 4 12"/>
    </symbol>

    <!-- Arrow Right -->
    <symbol id="icon-arrow-right" viewBox="0 0 24 24" fill="none" stroke="currentColor" stroke-width="2" stroke-linecap="round" stroke-linejoin="round">
        <line x1="5" y1="12" x2="19" y2="12"/>
        <polyline points="12 5 19 12 12 19"/>
    </symbol>

    <!-- External Link -->
    <symbol id="icon-external" viewBox="0 0 24 24" fill="none" stroke="currentColor" stroke-width="1.8" stroke-linecap="round" stroke-linejoin="round">
        <path d="M18 13v6a2 2 0 0 1-2 2H5a2 2 0 0 1-2-2V8a2 2 0 0 1 2-2h6"/>
        <polyline points="15 3 21 3 21 9"/>
        <line x1="10" y1="14" x2="21" y2="3"/>
    </symbol>

</svg>